<?xml version="1.0" encoding="UTF-8" standalone="no"?><!DOCTYPE svg PUBLIC "-//W3C//DTD SVG 1.1//EN" "http://www.w3.org/Graphics/SVG/1.1/DTD/svg11.dtd"><svg width="100%" height="100%" viewBox="0 0 339 146" version="1.1" xmlns="http://www.w3.org/2000/svg" xmlns:xlink="http://www.w3.org/1999/xlink" xml:space="preserve" xmlns:serif="http://www.serif.com/" style="fill-rule:evenodd;clip-rule:evenodd;stroke-linecap:round;stroke-linejoin:round;stroke-miterlimit:1.5;"><g transform="matrix(1.33333,0,0,1.33333,-219.283,-176.131)"><g transform="matrix(1,0,0,1,4.69413,7.99001)"><g transform="matrix(1,0,0,1,-115.885,-92.1629)"><path d="M526.462,245.094c0,-14.135 -11.476,-25.611 -25.611,-25.611l-165.31,0c-14.135,0 -25.611,11.476 -25.611,25.611l0,51.223c0,14.135 11.476,25.611 25.611,25.611l165.31,0c14.135,0 25.611,-11.476 25.611,-25.611l0,-51.223Z" style="fill:#01fea3;fill-opacity:0.776471;stroke:#01fea3;stroke-width:6.42px;"/></g></g><g transform="matrix(1,0,0,1,4.69413,7.99001)"><g transform="matrix(1,0,0,1,-21.9795,-34.8121)"><text x="246.199px" y="230.46px" style="font-family:'ArialMT', 'Arial', sans-serif;font-size:50px;fill:#fff;">Buu?</text></g></g><g transform="matrix(1,0,0,1,4.69413,7.99001)"><g transform="matrix(0.0357749,-0.99936,0.99936,0.0357749,-77.1466,360.566)"><path d="M192.555,233.387l5.365,12.517l-10.729,0l5.364,-12.517Z" style="fill:#01fea3;fill-opacity:0.776471;stroke:#01fea3;stroke-width:6.42px;"/></g></g></g></svg>